<svg width="260" height="114" viewBox="0 0 260 114" fill="none" xmlns="http://www.w3.org/2000/svg">
<path d="M0 72.0043L28.3017 0H36.0022L63.6038 72.0043H56.6034L48.3029 49.403H15.5009L7.00042 72.0043H0ZM17.8011 43.6026H46.0028L31.9019 5.80034L17.8011 43.6026Z" fill="black"/>
<path d="M68.1033 9.20055H67.9033V72.0043H61.1029V0H68.8033L110.406 62.9038H110.606V0H117.406V72.0043H109.506L68.1033 9.20055Z" fill="black"/>
<path d="M110.606 72.0043V0H117.406V37.3022L154.308 0H162.009L133.607 28.7017L167.009 72.0043H158.709L128.707 32.902L117.406 44.2026V72.0043H110.606Z" fill="black"/>
<path d="M164.908 72.0043V0H212.811V5.80034H171.709V31.8019H208.811V37.6022H171.709V66.204H213.811V72.0043H164.908Z" fill="black"/>
<path d="M207.544 0H259.947V5.80034H237.145V72.0043H230.345V5.80034H207.544V0Z" fill="black"/>
<path d="M31.6092 95.0044L35.5712 84.9244H36.6492L40.5132 95.0044H39.5332L38.3712 91.8404H33.7792L32.5892 95.0044H31.6092ZM34.1012 91.0284H38.0492L36.0752 85.7364L34.1012 91.0284ZM46.5235 95.0044H45.6835V87.7524H46.5235V89.1104H46.5515C46.7849 88.5317 47.0835 88.1304 47.4475 87.9064C47.8209 87.6731 48.3109 87.5564 48.9175 87.5564V88.4664C48.4415 88.4571 48.0495 88.5317 47.7415 88.6904C47.4335 88.8491 47.1862 89.0637 46.9995 89.3344C46.8222 89.6051 46.6962 89.9271 46.6215 90.3004C46.5562 90.6644 46.5235 91.0471 46.5235 91.4484V95.0044ZM55.3076 90.8744C55.3076 90.5197 55.2562 90.1884 55.1536 89.8804C55.0602 89.5631 54.9156 89.2924 54.7196 89.0684C54.5329 88.8351 54.2949 88.6531 54.0056 88.5224C53.7162 88.3824 53.3849 88.3124 53.0116 88.3124C52.6382 88.3124 52.3069 88.3824 52.0176 88.5224C51.7376 88.6624 51.4949 88.8491 51.2896 89.0824C51.0936 89.3157 50.9349 89.5864 50.8136 89.8944C50.6922 90.2024 50.6129 90.5291 50.5756 90.8744H55.3076ZM50.5756 91.5744C50.5756 91.9664 50.6269 92.3397 50.7296 92.6944C50.8322 93.0397 50.9816 93.3431 51.1776 93.6044C51.3829 93.8564 51.6396 94.0617 51.9476 94.2204C52.2556 94.3697 52.6102 94.4444 53.0116 94.4444C53.5622 94.4444 54.0336 94.2997 54.4256 94.0104C54.8176 93.7211 55.0789 93.3104 55.2096 92.7784H56.1476C56.0449 93.1237 55.9096 93.4457 55.7416 93.7444C55.5736 94.0337 55.3636 94.2904 55.1116 94.5144C54.8596 94.7291 54.5609 94.8971 54.2156 95.0184C53.8702 95.1397 53.4689 95.2004 53.0116 95.2004C52.4329 95.2004 51.9336 95.1024 51.5136 94.9064C51.0936 94.7104 50.7482 94.4444 50.4776 94.1084C50.2069 93.7631 50.0062 93.3617 49.8756 92.9044C49.7449 92.4377 49.6796 91.9384 49.6796 91.4064C49.6796 90.8744 49.7542 90.3751 49.9036 89.9084C50.0622 89.4417 50.2816 89.0357 50.5616 88.6904C50.8509 88.3357 51.2009 88.0604 51.6116 87.8644C52.0222 87.6591 52.4889 87.5564 53.0116 87.5564C54.0102 87.5564 54.7942 87.9017 55.3636 88.5924C55.9329 89.2737 56.2129 90.2677 56.2036 91.5744H50.5756ZM57.1089 88.4524V87.7524H58.1869V86.6044C58.1869 86.0257 58.3035 85.5684 58.5369 85.2324C58.7702 84.8964 59.1669 84.7284 59.7269 84.7284C59.8575 84.7284 59.9789 84.7331 60.0909 84.7424C60.2029 84.7517 60.3149 84.7657 60.4269 84.7844V85.5544C60.2402 85.5077 60.0722 85.4844 59.9229 85.4844C59.7082 85.4844 59.5402 85.5264 59.4189 85.6104C59.2975 85.6851 59.2089 85.7877 59.1529 85.9184C59.0969 86.0491 59.0595 86.1984 59.0409 86.3664C59.0315 86.5251 59.0269 86.6884 59.0269 86.8564V87.7524H60.4269V88.4524H59.0269V95.0044H58.1869V88.4524H57.1089ZM62.6153 95.0044H61.7753V87.7524H62.6153V89.1104H62.6433C62.8767 88.5317 63.1753 88.1304 63.5393 87.9064C63.9127 87.6731 64.4027 87.5564 65.0093 87.5564V88.4664C64.5333 88.4571 64.1413 88.5317 63.8333 88.6904C63.5253 88.8491 63.278 89.0637 63.0913 89.3344C62.914 89.6051 62.788 89.9271 62.7133 90.3004C62.648 90.6644 62.6153 91.0471 62.6153 91.4484V95.0044ZM71.3994 90.8744C71.3994 90.5197 71.348 90.1884 71.2454 89.8804C71.152 89.5631 71.0074 89.2924 70.8114 89.0684C70.6247 88.8351 70.3867 88.6531 70.0974 88.5224C69.808 88.3824 69.4767 88.3124 69.1034 88.3124C68.73 88.3124 68.3987 88.3824 68.1094 88.5224C67.8294 88.6624 67.5867 88.8491 67.3814 89.0824C67.1854 89.3157 67.0267 89.5864 66.9054 89.8944C66.784 90.2024 66.7047 90.5291 66.6674 90.8744H71.3994ZM66.6674 91.5744C66.6674 91.9664 66.7187 92.3397 66.8214 92.6944C66.924 93.0397 67.0734 93.3431 67.2694 93.6044C67.4747 93.8564 67.7314 94.0617 68.0394 94.2204C68.3474 94.3697 68.702 94.4444 69.1034 94.4444C69.654 94.4444 70.1254 94.2997 70.5174 94.0104C70.9094 93.7211 71.1707 93.3104 71.3014 92.7784H72.2394C72.1367 93.1237 72.0014 93.4457 71.8334 93.7444C71.6654 94.0337 71.4554 94.2904 71.2034 94.5144C70.9514 94.7291 70.6527 94.8971 70.3074 95.0184C69.962 95.1397 69.5607 95.2004 69.1034 95.2004C68.5247 95.2004 68.0254 95.1024 67.6054 94.9064C67.1854 94.7104 66.84 94.4444 66.5694 94.1084C66.2987 93.7631 66.098 93.3617 65.9674 92.9044C65.8367 92.4377 65.7714 91.9384 65.7714 91.4064C65.7714 90.8744 65.846 90.3751 65.9954 89.9084C66.154 89.4417 66.3734 89.0357 66.6534 88.6904C66.9427 88.3357 67.2927 88.0604 67.7034 87.8644C68.114 87.6591 68.5807 87.5564 69.1034 87.5564C70.102 87.5564 70.886 87.9017 71.4554 88.5924C72.0247 89.2737 72.3047 90.2677 72.2954 91.5744H66.6674ZM74.4187 92.7364C74.5493 93.3617 74.7827 93.8051 75.1187 94.0664C75.464 94.3184 75.954 94.4444 76.5887 94.4444C76.8967 94.4444 77.1627 94.4071 77.3867 94.3324C77.6107 94.2577 77.7927 94.1597 77.9327 94.0384C78.082 93.9077 78.194 93.7631 78.2687 93.6044C78.3433 93.4457 78.3807 93.2777 78.3807 93.1004C78.3807 92.7457 78.264 92.4844 78.0307 92.3164C77.8067 92.1391 77.522 92.0037 77.1767 91.9104C76.8313 91.8077 76.458 91.7237 76.0567 91.6584C75.6553 91.5837 75.282 91.4764 74.9367 91.3364C74.5913 91.1964 74.302 90.9957 74.0687 90.7344C73.8447 90.4731 73.7327 90.1044 73.7327 89.6284C73.7327 89.0217 73.952 88.5271 74.3907 88.1444C74.8387 87.7524 75.4687 87.5564 76.2807 87.5564C77.0647 87.5564 77.6993 87.7337 78.1847 88.0884C78.6793 88.4337 78.978 89.0171 79.0807 89.8384H78.2267C78.152 89.2784 77.9373 88.8864 77.5827 88.6624C77.2373 88.4291 76.7987 88.3124 76.2667 88.3124C75.7347 88.3124 75.3287 88.4291 75.0487 88.6624C74.7687 88.8864 74.6287 89.1851 74.6287 89.5584C74.6287 89.8851 74.7407 90.1371 74.9647 90.3144C75.198 90.4824 75.4873 90.6224 75.8327 90.7344C76.178 90.8371 76.5513 90.9304 76.9527 91.0144C77.354 91.0984 77.7273 91.2197 78.0727 91.3784C78.418 91.5277 78.7027 91.7331 78.9267 91.9944C79.16 92.2557 79.2767 92.6197 79.2767 93.0864C79.2767 93.4317 79.202 93.7397 79.0527 94.0104C78.9033 94.2717 78.698 94.4911 78.4367 94.6684C78.1753 94.8457 77.8627 94.9764 77.4987 95.0604C77.144 95.1537 76.752 95.2004 76.3227 95.2004C75.8933 95.2004 75.5107 95.1351 75.1747 95.0044C74.848 94.8831 74.568 94.7104 74.3347 94.4864C74.1013 94.2624 73.9193 94.0011 73.7887 93.7024C73.658 93.4037 73.5833 93.0817 73.5647 92.7364H74.4187ZM80.9287 95.0044V84.9244H81.7687V88.7604C82.1047 88.4057 82.45 88.1164 82.8047 87.8924C83.1687 87.6684 83.6027 87.5564 84.1067 87.5564C84.5547 87.5564 84.97 87.6357 85.3527 87.7944C85.7353 87.9437 86.0573 88.2097 86.3187 88.5924C86.496 88.8537 86.5987 89.1244 86.6267 89.4044C86.664 89.6751 86.6827 89.9597 86.6827 90.2584V95.0044H85.8427V90.2724C85.8427 89.6191 85.698 89.1291 85.4087 88.8024C85.1193 88.4757 84.6387 88.3124 83.9667 88.3124C83.7053 88.3124 83.4673 88.3544 83.2527 88.4384C83.038 88.5131 82.842 88.6157 82.6647 88.7464C82.4967 88.8771 82.352 89.0264 82.2307 89.1944C82.1093 89.3624 82.016 89.5397 81.9507 89.7264C81.8667 89.9597 81.8153 90.1837 81.7967 90.3984C81.778 90.6131 81.7687 90.8464 81.7687 91.0984V95.0044H80.9287ZM95.1524 95.0324C95.0498 95.0511 94.9144 95.0837 94.7464 95.1304C94.5784 95.1771 94.3918 95.2004 94.1864 95.2004C93.7664 95.2004 93.4444 95.0977 93.2204 94.8924C93.0058 94.6777 92.8984 94.2997 92.8984 93.7584V88.4524H91.8764V87.7524H92.8984V85.7364H93.7384V87.7524H95.0964V88.4524H93.7384V93.4224C93.7384 93.5997 93.7431 93.7537 93.7524 93.8844C93.7618 94.0151 93.7898 94.1224 93.8364 94.2064C93.8831 94.2904 93.9531 94.3511 94.0464 94.3884C94.1491 94.4257 94.2891 94.4444 94.4664 94.4444C94.5784 94.4444 94.6904 94.4351 94.8024 94.4164C94.9238 94.3977 95.0404 94.3744 95.1524 94.3464V95.0324ZM99.3849 95.2004C98.9183 95.1911 98.4796 95.1071 98.0689 94.9484C97.6676 94.7897 97.3129 94.5517 97.0049 94.2344C96.7063 93.9171 96.4683 93.5204 96.2909 93.0444C96.1136 92.5684 96.0249 92.0131 96.0249 91.3784C96.0249 90.8464 96.0949 90.3517 96.2349 89.8944C96.3749 89.4277 96.5849 89.0217 96.8649 88.6764C97.1449 88.3311 97.4949 88.0604 97.9149 87.8644C98.3349 87.6591 98.8249 87.5564 99.3849 87.5564C99.9543 87.5564 100.449 87.6591 100.869 87.8644C101.289 88.0604 101.639 88.3311 101.919 88.6764C102.199 89.0124 102.404 89.4137 102.535 89.8804C102.675 90.3471 102.745 90.8464 102.745 91.3784C102.745 91.9571 102.666 92.4797 102.507 92.9464C102.348 93.4131 102.12 93.8144 101.821 94.1504C101.532 94.4864 101.177 94.7477 100.757 94.9344C100.346 95.1117 99.8889 95.2004 99.3849 95.2004ZM101.849 91.3784C101.849 90.9491 101.802 90.5477 101.709 90.1744C101.616 89.8011 101.471 89.4791 101.275 89.2084C101.079 88.9284 100.827 88.7091 100.519 88.5504C100.211 88.3917 99.8329 88.3124 99.3849 88.3124C98.9463 88.3124 98.5683 88.4011 98.2509 88.5784C97.9429 88.7464 97.6909 88.9751 97.4949 89.2644C97.2989 89.5444 97.1543 89.8711 97.0609 90.2444C96.9676 90.6084 96.9209 90.9864 96.9209 91.3784C96.9209 91.8264 96.9723 92.2417 97.0749 92.6244C97.1869 92.9977 97.3456 93.3197 97.5509 93.5904C97.7563 93.8611 98.0129 94.0711 98.3209 94.2204C98.6289 94.3697 98.9836 94.4444 99.3849 94.4444C99.8236 94.4444 100.197 94.3604 100.505 94.1924C100.822 94.0151 101.079 93.7817 101.275 93.4924C101.471 93.2031 101.616 92.8764 101.709 92.5124C101.802 92.1484 101.849 91.7704 101.849 91.3784ZM108.121 96.9784C108.233 96.9971 108.345 97.0157 108.457 97.0344C108.578 97.0531 108.699 97.0624 108.821 97.0624C109.054 97.0624 109.245 96.9877 109.395 96.8384C109.544 96.6891 109.665 96.5071 109.759 96.2924C109.861 96.0871 109.945 95.8677 110.011 95.6344C110.076 95.4104 110.151 95.2191 110.235 95.0604L107.421 87.7524H108.359L110.683 93.9824L113.007 87.7524H113.917L111.215 94.9064C111.047 95.3637 110.883 95.7744 110.725 96.1384C110.575 96.5024 110.412 96.8104 110.235 97.0624C110.067 97.3237 109.875 97.5197 109.661 97.6504C109.455 97.7904 109.208 97.8604 108.919 97.8604C108.769 97.8604 108.625 97.8511 108.485 97.8324C108.354 97.8137 108.233 97.7904 108.121 97.7624V96.9784ZM118.061 95.2004C117.594 95.1911 117.155 95.1071 116.745 94.9484C116.343 94.7897 115.989 94.5517 115.681 94.2344C115.382 93.9171 115.144 93.5204 114.967 93.0444C114.789 92.5684 114.701 92.0131 114.701 91.3784C114.701 90.8464 114.771 90.3517 114.911 89.8944C115.051 89.4277 115.261 89.0217 115.541 88.6764C115.821 88.3311 116.171 88.0604 116.591 87.8644C117.011 87.6591 117.501 87.5564 118.061 87.5564C118.63 87.5564 119.125 87.6591 119.545 87.8644C119.965 88.0604 120.315 88.3311 120.595 88.6764C120.875 89.0124 121.08 89.4137 121.211 89.8804C121.351 90.3471 121.421 90.8464 121.421 91.3784C121.421 91.9571 121.341 92.4797 121.183 92.9464C121.024 93.4131 120.795 93.8144 120.497 94.1504C120.207 94.4864 119.853 94.7477 119.433 94.9344C119.022 95.1117 118.565 95.2004 118.061 95.2004ZM120.525 91.3784C120.525 90.9491 120.478 90.5477 120.385 90.1744C120.291 89.8011 120.147 89.4791 119.951 89.2084C119.755 88.9284 119.503 88.7091 119.195 88.5504C118.887 88.3917 118.509 88.3124 118.061 88.3124C117.622 88.3124 117.244 88.4011 116.927 88.5784C116.619 88.7464 116.367 88.9751 116.171 89.2644C115.975 89.5444 115.83 89.8711 115.737 90.2444C115.643 90.6084 115.597 90.9864 115.597 91.3784C115.597 91.8264 115.648 92.2417 115.751 92.6244C115.863 92.9977 116.021 93.3197 116.227 93.5904C116.432 93.8611 116.689 94.0711 116.997 94.2204C117.305 94.3697 117.659 94.4444 118.061 94.4444C118.499 94.4444 118.873 94.3604 119.181 94.1924C119.498 94.0151 119.755 93.7817 119.951 93.4924C120.147 93.2031 120.291 92.8764 120.385 92.5124C120.478 92.1484 120.525 91.7704 120.525 91.3784ZM127.87 87.7524H128.71V95.0044H127.87V93.9964C127.758 94.1271 127.632 94.2624 127.492 94.4024C127.352 94.5424 127.189 94.6731 127.002 94.7944C126.825 94.9064 126.615 94.9997 126.372 95.0744C126.129 95.1584 125.849 95.2004 125.532 95.2004C125.047 95.2004 124.641 95.1351 124.314 95.0044C123.987 94.8644 123.721 94.6731 123.516 94.4304C123.32 94.1877 123.175 93.9077 123.082 93.5904C122.998 93.2637 122.956 92.9091 122.956 92.5264V87.7524H123.796V92.5124C123.796 93.1377 123.941 93.6184 124.23 93.9544C124.519 94.2811 124.995 94.4444 125.658 94.4444C126.003 94.4444 126.311 94.3791 126.582 94.2484C126.862 94.1084 127.095 93.9171 127.282 93.6744C127.469 93.4317 127.613 93.1424 127.716 92.8064C127.819 92.4704 127.87 92.1017 127.87 91.7004V87.7524ZM131.617 95.0044H130.777V87.7524H131.617V89.1104H131.645C131.879 88.5317 132.177 88.1304 132.541 87.9064C132.915 87.6731 133.405 87.5564 134.011 87.5564V88.4664C133.535 88.4571 133.143 88.5317 132.835 88.6904C132.527 88.8491 132.28 89.0637 132.093 89.3344C131.916 89.6051 131.79 89.9271 131.715 90.3004C131.65 90.6644 131.617 91.0471 131.617 91.4484V95.0044ZM140.134 95.0044H139.294V87.7524H140.134V88.7604C140.47 88.4057 140.815 88.1164 141.17 87.8924C141.534 87.6684 141.968 87.5564 142.472 87.5564C142.92 87.5564 143.335 87.6357 143.718 87.7944C144.101 87.9437 144.423 88.2097 144.684 88.5924C144.861 88.8537 144.964 89.1244 144.992 89.4044C145.029 89.6751 145.048 89.9597 145.048 90.2584V95.0044H144.208V90.2724C144.208 89.6191 144.063 89.1291 143.774 88.8024C143.485 88.4757 143.004 88.3124 142.332 88.3124C142.071 88.3124 141.833 88.3544 141.618 88.4384C141.403 88.5131 141.207 88.6157 141.03 88.7464C140.862 88.8771 140.717 89.0264 140.596 89.1944C140.475 89.3624 140.381 89.5397 140.316 89.7264C140.232 89.9597 140.181 90.1837 140.162 90.3984C140.143 90.6131 140.134 90.8464 140.134 91.0984V95.0044ZM152.323 90.8744C152.323 90.5197 152.272 90.1884 152.169 89.8804C152.076 89.5631 151.931 89.2924 151.735 89.0684C151.549 88.8351 151.311 88.6531 151.021 88.5224C150.732 88.3824 150.401 88.3124 150.027 88.3124C149.654 88.3124 149.323 88.3824 149.033 88.5224C148.753 88.6624 148.511 88.8491 148.305 89.0824C148.109 89.3157 147.951 89.5864 147.829 89.8944C147.708 90.2024 147.629 90.5291 147.591 90.8744H152.323ZM147.591 91.5744C147.591 91.9664 147.643 92.3397 147.745 92.6944C147.848 93.0397 147.997 93.3431 148.193 93.6044C148.399 93.8564 148.655 94.0617 148.963 94.2204C149.271 94.3697 149.626 94.4444 150.027 94.4444C150.578 94.4444 151.049 94.2997 151.441 94.0104C151.833 93.7211 152.095 93.3104 152.225 92.7784H153.163C153.061 93.1237 152.925 93.4457 152.757 93.7444C152.589 94.0337 152.379 94.2904 152.127 94.5144C151.875 94.7291 151.577 94.8971 151.231 95.0184C150.886 95.1397 150.485 95.2004 150.027 95.2004C149.449 95.2004 148.949 95.1024 148.529 94.9064C148.109 94.7104 147.764 94.4444 147.493 94.1084C147.223 93.7631 147.022 93.3617 146.891 92.9044C146.761 92.4377 146.695 91.9384 146.695 91.4064C146.695 90.8744 146.77 90.3751 146.919 89.9084C147.078 89.4417 147.297 89.0357 147.577 88.6904C147.867 88.3357 148.217 88.0604 148.627 87.8644C149.038 87.6591 149.505 87.5564 150.027 87.5564C151.026 87.5564 151.81 87.9017 152.379 88.5924C152.949 89.2737 153.229 90.2677 153.219 91.5744H147.591ZM160.984 93.8844L162.888 87.7524H163.742L161.39 95.0044H160.494L158.912 88.9144H158.884L157.274 95.0044H156.266L154.054 87.7524H154.894L156.77 93.9404L158.45 87.7524H159.388L160.984 93.8844ZM171.4 95.0324C171.298 95.0511 171.162 95.0837 170.994 95.1304C170.826 95.1771 170.64 95.2004 170.434 95.2004C170.014 95.2004 169.692 95.0977 169.468 94.8924C169.254 94.6777 169.146 94.2997 169.146 93.7584V88.4524H168.124V87.7524H169.146V85.7364H169.986V87.7524H171.344V88.4524H169.986V93.4224C169.986 93.5997 169.991 93.7537 170 93.8844C170.01 94.0151 170.038 94.1224 170.084 94.2064C170.131 94.2904 170.201 94.3511 170.294 94.3884C170.397 94.4257 170.537 94.4444 170.714 94.4444C170.826 94.4444 170.938 94.4351 171.05 94.4164C171.172 94.3977 171.288 94.3744 171.4 94.3464V95.0324ZM177.495 91.1964C177.14 91.3457 176.781 91.4437 176.417 91.4904C176.053 91.5371 175.689 91.5744 175.325 91.6024C174.681 91.6491 174.177 91.7937 173.813 92.0364C173.458 92.2791 173.281 92.6477 173.281 93.1424C173.281 93.3664 173.323 93.5624 173.407 93.7304C173.5 93.8891 173.617 94.0244 173.757 94.1364C173.906 94.2391 174.074 94.3184 174.261 94.3744C174.457 94.4211 174.653 94.4444 174.849 94.4444C175.185 94.4444 175.512 94.4024 175.829 94.3184C176.146 94.2344 176.426 94.1084 176.669 93.9404C176.921 93.7631 177.122 93.5437 177.271 93.2824C177.42 93.0117 177.495 92.6944 177.495 92.3304V91.1964ZM176.081 90.7764C176.24 90.7577 176.426 90.7297 176.641 90.6924C176.865 90.6551 177.047 90.6037 177.187 90.5384C177.327 90.4731 177.411 90.3657 177.439 90.2164C177.476 90.0577 177.495 89.9131 177.495 89.7824C177.495 89.3531 177.355 89.0031 177.075 88.7324C176.804 88.4524 176.342 88.3124 175.689 88.3124C175.4 88.3124 175.134 88.3404 174.891 88.3964C174.648 88.4431 174.434 88.5317 174.247 88.6624C174.07 88.7837 173.92 88.9517 173.799 89.1664C173.687 89.3717 173.612 89.6331 173.575 89.9504H172.721C172.749 89.5211 172.847 89.1571 173.015 88.8584C173.183 88.5504 173.398 88.3031 173.659 88.1164C173.93 87.9204 174.238 87.7804 174.583 87.6964C174.938 87.6031 175.311 87.5564 175.703 87.5564C176.067 87.5564 176.408 87.5984 176.725 87.6824C177.052 87.7571 177.332 87.8831 177.565 88.0604C177.808 88.2284 177.994 88.4571 178.125 88.7464C178.265 89.0357 178.335 89.3904 178.335 89.8104V93.7584C178.335 94.0851 178.391 94.2951 178.503 94.3884C178.624 94.4724 178.862 94.4491 179.217 94.3184V94.9764C179.152 94.9951 179.054 95.0231 178.923 95.0604C178.802 95.0977 178.68 95.1164 178.559 95.1164C178.428 95.1164 178.302 95.1024 178.181 95.0744C178.041 95.0557 177.929 95.0137 177.845 94.9484C177.761 94.8737 177.691 94.7897 177.635 94.6964C177.588 94.5937 177.556 94.4864 177.537 94.3744C177.518 94.2531 177.509 94.1271 177.509 93.9964C177.154 94.3884 176.748 94.6871 176.291 94.8924C175.834 95.0977 175.339 95.2004 174.807 95.2004C174.49 95.2004 174.182 95.1584 173.883 95.0744C173.594 94.9904 173.337 94.8597 173.113 94.6824C172.889 94.5051 172.712 94.2904 172.581 94.0384C172.45 93.7771 172.385 93.4691 172.385 93.1144C172.385 91.8824 173.23 91.1544 174.919 90.9304L176.081 90.7764ZM181.466 91.3504C181.466 91.7891 181.518 92.1997 181.62 92.5824C181.732 92.9557 181.891 93.2824 182.096 93.5624C182.302 93.8331 182.558 94.0477 182.866 94.2064C183.174 94.3651 183.524 94.4444 183.916 94.4444C184.271 94.4444 184.598 94.3837 184.896 94.2624C185.195 94.1317 185.456 93.9451 185.68 93.7024C185.904 93.4597 186.077 93.1657 186.198 92.8204C186.329 92.4657 186.394 92.0597 186.394 91.6024C186.413 91.1451 186.376 90.7204 186.282 90.3284C186.189 89.9271 186.04 89.5771 185.834 89.2784C185.629 88.9797 185.363 88.7464 185.036 88.5784C184.719 88.4011 184.346 88.3124 183.916 88.3124C183.534 88.3124 183.188 88.3964 182.88 88.5644C182.582 88.7231 182.325 88.9424 182.11 89.2224C181.905 89.4931 181.746 89.8151 181.634 90.1884C181.522 90.5524 181.466 90.9397 181.466 91.3504ZM181.466 95.0044H180.626V84.9244H181.466V88.9144C181.737 88.4664 182.106 88.1304 182.572 87.9064C183.048 87.6731 183.543 87.5564 184.056 87.5564C184.607 87.5564 185.083 87.6637 185.484 87.8784C185.895 88.0837 186.231 88.3637 186.492 88.7184C186.763 89.0637 186.964 89.4697 187.094 89.9364C187.225 90.4031 187.29 90.8884 187.29 91.3924C187.29 91.9244 187.23 92.4237 187.108 92.8904C186.987 93.3571 186.791 93.7631 186.52 94.1084C186.259 94.4444 185.923 94.7104 185.512 94.9064C185.102 95.1024 184.602 95.2004 184.014 95.2004C183.781 95.2004 183.543 95.1677 183.3 95.1024C183.058 95.0371 182.82 94.9437 182.586 94.8224C182.362 94.7011 182.152 94.5517 181.956 94.3744C181.77 94.1877 181.616 93.9731 181.494 93.7304H181.466V95.0044ZM193.921 91.4064C193.921 91.8171 193.977 92.2091 194.089 92.5824C194.201 92.9464 194.36 93.2684 194.565 93.5484C194.78 93.8191 195.037 94.0384 195.335 94.2064C195.643 94.3651 195.989 94.4444 196.371 94.4444C196.801 94.4444 197.174 94.3604 197.491 94.1924C197.818 94.0151 198.084 93.7771 198.289 93.4784C198.495 93.1797 198.644 92.8344 198.737 92.4424C198.831 92.0411 198.868 91.6117 198.849 91.1544C198.849 90.6971 198.784 90.2957 198.653 89.9504C198.532 89.5957 198.359 89.2971 198.135 89.0544C197.911 88.8117 197.65 88.6297 197.351 88.5084C197.053 88.3777 196.726 88.3124 196.371 88.3124C195.979 88.3124 195.629 88.3917 195.321 88.5504C195.013 88.7091 194.757 88.9284 194.551 89.2084C194.346 89.4791 194.187 89.8057 194.075 90.1884C193.973 90.5617 193.921 90.9677 193.921 91.4064ZM193.921 97.8604H193.081V87.7524H193.921V89.0264H193.949C194.071 88.7931 194.225 88.5831 194.411 88.3964C194.607 88.2097 194.817 88.0557 195.041 87.9344C195.275 87.8131 195.513 87.7197 195.755 87.6544C195.998 87.5891 196.236 87.5564 196.469 87.5564C197.057 87.5564 197.557 87.6544 197.967 87.8504C198.378 88.0464 198.714 88.3171 198.975 88.6624C199.246 88.9984 199.442 89.3997 199.563 89.8664C199.685 90.3331 199.745 90.8324 199.745 91.3644C199.745 91.8684 199.68 92.3537 199.549 92.8204C199.419 93.2871 199.218 93.6977 198.947 94.0524C198.686 94.3977 198.35 94.6777 197.939 94.8924C197.538 95.0977 197.062 95.2004 196.511 95.2004C195.998 95.2004 195.503 95.0884 195.027 94.8644C194.561 94.6311 194.192 94.2904 193.921 93.8424V97.8604ZM206.288 91.1964C205.933 91.3457 205.574 91.4437 205.21 91.4904C204.846 91.5371 204.482 91.5744 204.118 91.6024C203.474 91.6491 202.97 91.7937 202.606 92.0364C202.251 92.2791 202.074 92.6477 202.074 93.1424C202.074 93.3664 202.116 93.5624 202.2 93.7304C202.293 93.8891 202.41 94.0244 202.55 94.1364C202.699 94.2391 202.867 94.3184 203.054 94.3744C203.25 94.4211 203.446 94.4444 203.642 94.4444C203.978 94.4444 204.305 94.4024 204.622 94.3184C204.939 94.2344 205.219 94.1084 205.462 93.9404C205.714 93.7631 205.915 93.5437 206.064 93.2824C206.213 93.0117 206.288 92.6944 206.288 92.3304V91.1964ZM204.874 90.7764C205.033 90.7577 205.219 90.7297 205.434 90.6924C205.658 90.6551 205.84 90.6037 205.98 90.5384C206.12 90.4731 206.204 90.3657 206.232 90.2164C206.269 90.0577 206.288 89.9131 206.288 89.7824C206.288 89.3531 206.148 89.0031 205.868 88.7324C205.597 88.4524 205.135 88.3124 204.482 88.3124C204.193 88.3124 203.927 88.3404 203.684 88.3964C203.441 88.4431 203.227 88.5317 203.04 88.6624C202.863 88.7837 202.713 88.9517 202.592 89.1664C202.48 89.3717 202.405 89.6331 202.368 89.9504H201.514C201.542 89.5211 201.64 89.1571 201.808 88.8584C201.976 88.5504 202.191 88.3031 202.452 88.1164C202.723 87.9204 203.031 87.7804 203.376 87.6964C203.731 87.6031 204.104 87.5564 204.496 87.5564C204.86 87.5564 205.201 87.5984 205.518 87.6824C205.845 87.7571 206.125 87.8831 206.358 88.0604C206.601 88.2284 206.787 88.4571 206.918 88.7464C207.058 89.0357 207.128 89.3904 207.128 89.8104V93.7584C207.128 94.0851 207.184 94.2951 207.296 94.3884C207.417 94.4724 207.655 94.4491 208.01 94.3184V94.9764C207.945 94.9951 207.847 95.0231 207.716 95.0604C207.595 95.0977 207.473 95.1164 207.352 95.1164C207.221 95.1164 207.095 95.1024 206.974 95.0744C206.834 95.0557 206.722 95.0137 206.638 94.9484C206.554 94.8737 206.484 94.7897 206.428 94.6964C206.381 94.5937 206.349 94.4864 206.33 94.3744C206.311 94.2531 206.302 94.1271 206.302 93.9964C205.947 94.3884 205.541 94.6871 205.084 94.8924C204.627 95.0977 204.132 95.2004 203.6 95.2004C203.283 95.2004 202.975 95.1584 202.676 95.0744C202.387 94.9904 202.13 94.8597 201.906 94.6824C201.682 94.5051 201.505 94.2904 201.374 94.0384C201.243 93.7771 201.178 93.4691 201.178 93.1144C201.178 91.8824 202.023 91.1544 203.712 90.9304L204.874 90.7764ZM214.921 91.4064C214.921 90.9677 214.865 90.5617 214.753 90.1884C214.651 89.8057 214.497 89.4791 214.291 89.2084C214.086 88.9284 213.829 88.7091 213.521 88.5504C213.213 88.3917 212.863 88.3124 212.471 88.3124C212.117 88.3124 211.79 88.3777 211.491 88.5084C211.193 88.6297 210.931 88.8117 210.707 89.0544C210.483 89.2971 210.306 89.5957 210.175 89.9504C210.054 90.2957 209.993 90.6971 209.993 91.1544C209.975 91.6117 210.012 92.0411 210.105 92.4424C210.199 92.8344 210.348 93.1797 210.553 93.4784C210.759 93.7771 211.02 94.0151 211.337 94.1924C211.655 94.3604 212.033 94.4444 212.471 94.4444C212.854 94.4444 213.195 94.3651 213.493 94.2064C213.801 94.0384 214.058 93.8191 214.263 93.5484C214.478 93.2684 214.641 92.9464 214.753 92.5824C214.865 92.2091 214.921 91.8171 214.921 91.4064ZM214.921 87.7524H215.761V94.3044C215.761 94.7897 215.71 95.2517 215.607 95.6904C215.514 96.1384 215.341 96.5304 215.089 96.8664C214.837 97.2024 214.492 97.4684 214.053 97.6644C213.615 97.8697 213.05 97.9724 212.359 97.9724C211.827 97.9724 211.37 97.9024 210.987 97.7624C210.605 97.6317 210.292 97.4637 210.049 97.2584C209.807 97.0531 209.62 96.8244 209.489 96.5724C209.368 96.3297 209.303 96.1011 209.293 95.8864H210.189C210.255 96.1571 210.357 96.3764 210.497 96.5444C210.637 96.7217 210.801 96.8571 210.987 96.9504C211.183 97.0531 211.398 97.1231 211.631 97.1604C211.865 97.1977 212.107 97.2164 212.359 97.2164C212.929 97.2164 213.386 97.1184 213.731 96.9224C214.077 96.7264 214.338 96.4697 214.515 96.1524C214.693 95.8351 214.805 95.4757 214.851 95.0744C214.907 94.6731 214.931 94.2624 214.921 93.8424C214.651 94.2904 214.277 94.6311 213.801 94.8644C213.335 95.0884 212.845 95.2004 212.331 95.2004C211.781 95.2004 211.3 95.0977 210.889 94.8924C210.488 94.6777 210.152 94.3977 209.881 94.0524C209.62 93.6977 209.424 93.2871 209.293 92.8204C209.163 92.3537 209.097 91.8684 209.097 91.3644C209.097 90.8324 209.158 90.3331 209.279 89.8664C209.401 89.3997 209.592 88.9984 209.853 88.6624C210.124 88.3171 210.465 88.0464 210.875 87.8504C211.286 87.6544 211.785 87.5564 212.373 87.5564C212.607 87.5564 212.845 87.5891 213.087 87.6544C213.33 87.7197 213.563 87.8131 213.787 87.9344C214.021 88.0557 214.231 88.2097 214.417 88.3964C214.613 88.5831 214.772 88.7931 214.893 89.0264H214.921V87.7524ZM223.13 90.8744C223.13 90.5197 223.078 90.1884 222.976 89.8804C222.882 89.5631 222.738 89.2924 222.542 89.0684C222.355 88.8351 222.117 88.6531 221.828 88.5224C221.538 88.3824 221.207 88.3124 220.834 88.3124C220.46 88.3124 220.129 88.3824 219.84 88.5224C219.56 88.6624 219.317 88.8491 219.112 89.0824C218.916 89.3157 218.757 89.5864 218.636 89.8944C218.514 90.2024 218.435 90.5291 218.398 90.8744H223.13ZM218.398 91.5744C218.398 91.9664 218.449 92.3397 218.552 92.6944C218.654 93.0397 218.804 93.3431 219 93.6044C219.205 93.8564 219.462 94.0617 219.77 94.2204C220.078 94.3697 220.432 94.4444 220.834 94.4444C221.384 94.4444 221.856 94.2997 222.248 94.0104C222.64 93.7211 222.901 93.3104 223.032 92.7784H223.97C223.867 93.1237 223.732 93.4457 223.564 93.7444C223.396 94.0337 223.186 94.2904 222.934 94.5144C222.682 94.7291 222.383 94.8971 222.038 95.0184C221.692 95.1397 221.291 95.2004 220.834 95.2004C220.255 95.2004 219.756 95.1024 219.336 94.9064C218.916 94.7104 218.57 94.4444 218.3 94.1084C218.029 93.7631 217.828 93.3617 217.698 92.9044C217.567 92.4377 217.502 91.9384 217.502 91.4064C217.502 90.8744 217.576 90.3751 217.726 89.9084C217.884 89.4417 218.104 89.0357 218.384 88.6904C218.673 88.3357 219.023 88.0604 219.434 87.8644C219.844 87.6591 220.311 87.5564 220.834 87.5564C221.832 87.5564 222.616 87.9017 223.186 88.5924C223.755 89.2737 224.035 90.2677 224.026 91.5744H218.398ZM226.079 95.0044V93.7724H227.101V95.0044H226.079ZM94.8258 103.85C94.6298 102.992 94.2658 102.38 93.7338 102.016C93.2018 101.652 92.5065 101.47 91.6478 101.47C91.0412 101.47 90.5185 101.592 90.0798 101.834C89.6412 102.077 89.2772 102.404 88.9878 102.814C88.7078 103.225 88.4978 103.701 88.3578 104.242C88.2272 104.774 88.1618 105.339 88.1618 105.936C88.1618 106.496 88.2178 107.047 88.3298 107.588C88.4512 108.13 88.6472 108.615 88.9178 109.044C89.1885 109.464 89.5525 109.805 90.0098 110.066C90.4672 110.328 91.0412 110.458 91.7318 110.458C92.1612 110.458 92.5532 110.388 92.9078 110.248C93.2625 110.108 93.5705 109.917 93.8318 109.674C94.1025 109.422 94.3265 109.128 94.5038 108.792C94.6905 108.456 94.8305 108.088 94.9238 107.686H95.9178C95.8058 108.172 95.6425 108.634 95.4278 109.072C95.2132 109.502 94.9285 109.88 94.5738 110.206C94.2285 110.533 93.8038 110.794 93.2998 110.99C92.8052 111.177 92.2218 111.27 91.5498 111.27C90.7752 111.27 90.1125 111.13 89.5618 110.85C89.0112 110.561 88.5585 110.174 88.2038 109.688C87.8585 109.203 87.6065 108.643 87.4478 108.008C87.2892 107.364 87.2098 106.683 87.2098 105.964C87.2098 105.003 87.3265 104.186 87.5598 103.514C87.8025 102.842 88.1338 102.296 88.5538 101.876C88.9738 101.447 89.4685 101.139 90.0378 100.952C90.6072 100.756 91.2278 100.658 91.8998 100.658C92.4132 100.658 92.8892 100.728 93.3278 100.868C93.7758 100.999 94.1678 101.2 94.5038 101.47C94.8492 101.741 95.1292 102.077 95.3438 102.478C95.5678 102.87 95.7218 103.328 95.8058 103.85H94.8258ZM100.533 111.2C100.067 111.191 99.628 111.107 99.2174 110.948C98.816 110.79 98.4614 110.552 98.1534 110.234C97.8547 109.917 97.6167 109.52 97.4394 109.044C97.262 108.568 97.1734 108.013 97.1734 107.378C97.1734 106.846 97.2434 106.352 97.3834 105.894C97.5234 105.428 97.7334 105.022 98.0134 104.676C98.2934 104.331 98.6434 104.06 99.0634 103.864C99.4834 103.659 99.9734 103.556 100.533 103.556C101.103 103.556 101.597 103.659 102.017 103.864C102.437 104.06 102.787 104.331 103.067 104.676C103.347 105.012 103.553 105.414 103.683 105.88C103.823 106.347 103.893 106.846 103.893 107.378C103.893 107.957 103.814 108.48 103.655 108.946C103.497 109.413 103.268 109.814 102.969 110.15C102.68 110.486 102.325 110.748 101.905 110.934C101.495 111.112 101.037 111.2 100.533 111.2ZM102.997 107.378C102.997 106.949 102.951 106.548 102.857 106.174C102.764 105.801 102.619 105.479 102.423 105.208C102.227 104.928 101.975 104.709 101.667 104.55C101.359 104.392 100.981 104.312 100.533 104.312C100.095 104.312 99.7167 104.401 99.3994 104.578C99.0914 104.746 98.8394 104.975 98.6434 105.264C98.4474 105.544 98.3027 105.871 98.2094 106.244C98.116 106.608 98.0694 106.986 98.0694 107.378C98.0694 107.826 98.1207 108.242 98.2234 108.624C98.3354 108.998 98.494 109.32 98.6994 109.59C98.9047 109.861 99.1614 110.071 99.4694 110.22C99.7774 110.37 100.132 110.444 100.533 110.444C100.972 110.444 101.345 110.36 101.653 110.192C101.971 110.015 102.227 109.782 102.423 109.492C102.619 109.203 102.764 108.876 102.857 108.512C102.951 108.148 102.997 107.77 102.997 107.378ZM106.157 111.004H105.317V103.752H106.157V104.844H106.185C106.399 104.424 106.707 104.107 107.109 103.892C107.51 103.668 107.949 103.556 108.425 103.556C108.761 103.556 109.045 103.594 109.279 103.668C109.512 103.743 109.708 103.846 109.867 103.976C110.035 104.098 110.17 104.242 110.273 104.41C110.385 104.578 110.478 104.76 110.553 104.956C110.795 104.48 111.117 104.13 111.519 103.906C111.929 103.673 112.396 103.556 112.919 103.556C113.413 103.556 113.805 103.64 114.095 103.808C114.393 103.967 114.622 104.182 114.781 104.452C114.939 104.714 115.042 105.017 115.089 105.362C115.145 105.708 115.173 106.062 115.173 106.426V111.004H114.333V105.992C114.333 105.47 114.221 105.059 113.997 104.76C113.782 104.462 113.376 104.312 112.779 104.312C112.471 104.312 112.172 104.382 111.883 104.522C111.603 104.653 111.355 104.858 111.141 105.138C111.047 105.26 110.968 105.404 110.903 105.572C110.847 105.731 110.8 105.899 110.763 106.076C110.725 106.254 110.697 106.431 110.679 106.608C110.669 106.786 110.665 106.949 110.665 107.098V111.004H109.825V105.992C109.825 105.47 109.713 105.059 109.489 104.76C109.274 104.462 108.868 104.312 108.271 104.312C107.963 104.312 107.664 104.382 107.375 104.522C107.095 104.653 106.847 104.858 106.633 105.138C106.539 105.26 106.46 105.404 106.395 105.572C106.339 105.731 106.292 105.899 106.255 106.076C106.217 106.254 106.189 106.431 106.171 106.608C106.161 106.786 106.157 106.949 106.157 107.098V111.004ZM116.971 111.004V103.752H117.811V111.004H116.971ZM116.929 102.17V100.924H117.853V102.17H116.929ZM120.788 111.004H119.948V103.752H120.788V104.76C121.124 104.406 121.47 104.116 121.824 103.892C122.188 103.668 122.622 103.556 123.126 103.556C123.574 103.556 123.99 103.636 124.372 103.794C124.755 103.944 125.077 104.21 125.338 104.592C125.516 104.854 125.618 105.124 125.646 105.404C125.684 105.675 125.702 105.96 125.702 106.258V111.004H124.862V106.272C124.862 105.619 124.718 105.129 124.428 104.802C124.139 104.476 123.658 104.312 122.986 104.312C122.725 104.312 122.487 104.354 122.272 104.438C122.058 104.513 121.862 104.616 121.684 104.746C121.516 104.877 121.372 105.026 121.25 105.194C121.129 105.362 121.036 105.54 120.97 105.726C120.886 105.96 120.835 106.184 120.816 106.398C120.798 106.613 120.788 106.846 120.788 107.098V111.004ZM133.327 107.406C133.327 106.968 133.271 106.562 133.159 106.188C133.057 105.806 132.903 105.479 132.697 105.208C132.492 104.928 132.235 104.709 131.927 104.55C131.619 104.392 131.269 104.312 130.877 104.312C130.523 104.312 130.196 104.378 129.897 104.508C129.599 104.63 129.337 104.812 129.113 105.054C128.889 105.297 128.712 105.596 128.581 105.95C128.46 106.296 128.399 106.697 128.399 107.154C128.381 107.612 128.418 108.041 128.511 108.442C128.605 108.834 128.754 109.18 128.959 109.478C129.165 109.777 129.426 110.015 129.743 110.192C130.061 110.36 130.439 110.444 130.877 110.444C131.26 110.444 131.601 110.365 131.899 110.206C132.207 110.038 132.464 109.819 132.669 109.548C132.884 109.268 133.047 108.946 133.159 108.582C133.271 108.209 133.327 107.817 133.327 107.406ZM133.327 103.752H134.167V110.304C134.167 110.79 134.116 111.252 134.013 111.69C133.92 112.138 133.747 112.53 133.495 112.866C133.243 113.202 132.898 113.468 132.459 113.664C132.021 113.87 131.456 113.972 130.765 113.972C130.233 113.972 129.776 113.902 129.393 113.762C129.011 113.632 128.698 113.464 128.455 113.258C128.213 113.053 128.026 112.824 127.895 112.572C127.774 112.33 127.709 112.101 127.699 111.886H128.595C128.661 112.157 128.763 112.376 128.903 112.544C129.043 112.722 129.207 112.857 129.393 112.95C129.589 113.053 129.804 113.123 130.037 113.16C130.271 113.198 130.513 113.216 130.765 113.216C131.335 113.216 131.792 113.118 132.137 112.922C132.483 112.726 132.744 112.47 132.921 112.152C133.099 111.835 133.211 111.476 133.257 111.074C133.313 110.673 133.337 110.262 133.327 109.842C133.057 110.29 132.683 110.631 132.207 110.864C131.741 111.088 131.251 111.2 130.737 111.2C130.187 111.2 129.706 111.098 129.295 110.892C128.894 110.678 128.558 110.398 128.287 110.052C128.026 109.698 127.83 109.287 127.699 108.82C127.569 108.354 127.503 107.868 127.503 107.364C127.503 106.832 127.564 106.333 127.685 105.866C127.807 105.4 127.998 104.998 128.259 104.662C128.53 104.317 128.871 104.046 129.281 103.85C129.692 103.654 130.191 103.556 130.779 103.556C131.013 103.556 131.251 103.589 131.493 103.654C131.736 103.72 131.969 103.813 132.193 103.934C132.427 104.056 132.637 104.21 132.823 104.396C133.019 104.583 133.178 104.793 133.299 105.026H133.327V103.752ZM140.673 108.736C140.803 109.362 141.037 109.805 141.373 110.066C141.718 110.318 142.208 110.444 142.843 110.444C143.151 110.444 143.417 110.407 143.641 110.332C143.865 110.258 144.047 110.16 144.187 110.038C144.336 109.908 144.448 109.763 144.523 109.604C144.597 109.446 144.635 109.278 144.635 109.1C144.635 108.746 144.518 108.484 144.285 108.316C144.061 108.139 143.776 108.004 143.431 107.91C143.085 107.808 142.712 107.724 142.311 107.658C141.909 107.584 141.536 107.476 141.191 107.336C140.845 107.196 140.556 106.996 140.323 106.734C140.099 106.473 139.987 106.104 139.987 105.628C139.987 105.022 140.206 104.527 140.645 104.144C141.093 103.752 141.723 103.556 142.535 103.556C143.319 103.556 143.953 103.734 144.439 104.088C144.933 104.434 145.232 105.017 145.335 105.838H144.481C144.406 105.278 144.191 104.886 143.837 104.662C143.491 104.429 143.053 104.312 142.521 104.312C141.989 104.312 141.583 104.429 141.303 104.662C141.023 104.886 140.883 105.185 140.883 105.558C140.883 105.885 140.995 106.137 141.219 106.314C141.452 106.482 141.741 106.622 142.087 106.734C142.432 106.837 142.805 106.93 143.207 107.014C143.608 107.098 143.981 107.22 144.327 107.378C144.672 107.528 144.957 107.733 145.181 107.994C145.414 108.256 145.531 108.62 145.531 109.086C145.531 109.432 145.456 109.74 145.307 110.01C145.157 110.272 144.952 110.491 144.691 110.668C144.429 110.846 144.117 110.976 143.753 111.06C143.398 111.154 143.006 111.2 142.577 111.2C142.147 111.2 141.765 111.135 141.429 111.004C141.102 110.883 140.822 110.71 140.589 110.486C140.355 110.262 140.173 110.001 140.043 109.702C139.912 109.404 139.837 109.082 139.819 108.736H140.673ZM150.067 111.2C149.6 111.191 149.161 111.107 148.751 110.948C148.349 110.79 147.995 110.552 147.687 110.234C147.388 109.917 147.15 109.52 146.973 109.044C146.795 108.568 146.707 108.013 146.707 107.378C146.707 106.846 146.777 106.352 146.917 105.894C147.057 105.428 147.267 105.022 147.547 104.676C147.827 104.331 148.177 104.06 148.597 103.864C149.017 103.659 149.507 103.556 150.067 103.556C150.636 103.556 151.131 103.659 151.551 103.864C151.971 104.06 152.321 104.331 152.601 104.676C152.881 105.012 153.086 105.414 153.217 105.88C153.357 106.347 153.427 106.846 153.427 107.378C153.427 107.957 153.347 108.48 153.189 108.946C153.03 109.413 152.801 109.814 152.503 110.15C152.213 110.486 151.859 110.748 151.439 110.934C151.028 111.112 150.571 111.2 150.067 111.2ZM152.531 107.378C152.531 106.949 152.484 106.548 152.391 106.174C152.297 105.801 152.153 105.479 151.957 105.208C151.761 104.928 151.509 104.709 151.201 104.55C150.893 104.392 150.515 104.312 150.067 104.312C149.628 104.312 149.25 104.401 148.933 104.578C148.625 104.746 148.373 104.975 148.177 105.264C147.981 105.544 147.836 105.871 147.743 106.244C147.649 106.608 147.603 106.986 147.603 107.378C147.603 107.826 147.654 108.242 147.757 108.624C147.869 108.998 148.027 109.32 148.233 109.59C148.438 109.861 148.695 110.071 149.003 110.22C149.311 110.37 149.665 110.444 150.067 110.444C150.505 110.444 150.879 110.36 151.187 110.192C151.504 110.015 151.761 109.782 151.957 109.492C152.153 109.203 152.297 108.876 152.391 108.512C152.484 108.148 152.531 107.77 152.531 107.378ZM157.846 111.2C157.379 111.191 156.941 111.107 156.53 110.948C156.129 110.79 155.774 110.552 155.466 110.234C155.167 109.917 154.929 109.52 154.752 109.044C154.575 108.568 154.486 108.013 154.486 107.378C154.486 106.846 154.556 106.352 154.696 105.894C154.836 105.428 155.046 105.022 155.326 104.676C155.606 104.331 155.956 104.06 156.376 103.864C156.796 103.659 157.286 103.556 157.846 103.556C158.415 103.556 158.91 103.659 159.33 103.864C159.75 104.06 160.1 104.331 160.38 104.676C160.66 105.012 160.865 105.414 160.996 105.88C161.136 106.347 161.206 106.846 161.206 107.378C161.206 107.957 161.127 108.48 160.968 108.946C160.809 109.413 160.581 109.814 160.282 110.15C159.993 110.486 159.638 110.748 159.218 110.934C158.807 111.112 158.35 111.2 157.846 111.2ZM160.31 107.378C160.31 106.949 160.263 106.548 160.17 106.174C160.077 105.801 159.932 105.479 159.736 105.208C159.54 104.928 159.288 104.709 158.98 104.55C158.672 104.392 158.294 104.312 157.846 104.312C157.407 104.312 157.029 104.401 156.712 104.578C156.404 104.746 156.152 104.975 155.956 105.264C155.76 105.544 155.615 105.871 155.522 106.244C155.429 106.608 155.382 106.986 155.382 107.378C155.382 107.826 155.433 108.242 155.536 108.624C155.648 108.998 155.807 109.32 156.012 109.59C156.217 109.861 156.474 110.071 156.782 110.22C157.09 110.37 157.445 110.444 157.846 110.444C158.285 110.444 158.658 110.36 158.966 110.192C159.283 110.015 159.54 109.782 159.736 109.492C159.932 109.203 160.077 108.876 160.17 108.512C160.263 108.148 160.31 107.77 160.31 107.378ZM163.581 111.004H162.741V103.752H163.581V104.76C163.917 104.406 164.262 104.116 164.617 103.892C164.981 103.668 165.415 103.556 165.919 103.556C166.367 103.556 166.782 103.636 167.165 103.794C167.548 103.944 167.87 104.21 168.131 104.592C168.308 104.854 168.411 105.124 168.439 105.404C168.476 105.675 168.495 105.96 168.495 106.258V111.004H167.655V106.272C167.655 105.619 167.51 105.129 167.221 104.802C166.932 104.476 166.451 104.312 165.779 104.312C165.518 104.312 165.28 104.354 165.065 104.438C164.85 104.513 164.654 104.616 164.477 104.746C164.309 104.877 164.164 105.026 164.043 105.194C163.922 105.362 163.828 105.54 163.763 105.726C163.679 105.96 163.628 106.184 163.609 106.398C163.59 106.613 163.581 106.846 163.581 107.098V111.004ZM170.94 111.004V109.772H171.962V111.004H170.94Z" fill="black"/>
</svg>
